<svg width="749" height="227" viewBox="0 0 749 227" fill="none" xmlns="http://www.w3.org/2000/svg">
<g opacity="0.07">
<path d="M12.6871 161.508C21.1446 169.372 33.9791 173.304 51.1166 173.304H170.04V125.972H58.8322V46.8869H170.263V0H49.4103C33.6082 0 21.3672 4.08035 12.8355 12.1669C4.30387 20.2534 0.00095933 31.8267 0.00095933 46.8869V125.972C-0.0732289 141.848 4.1555 153.644 12.6871 161.508Z" fill="#080808"/>
<path d="M226.349 173.304H258.918C267.153 173.304 273.533 172.117 277.91 169.668C282.287 167.22 285.7 163.214 288.074 157.576C290.967 163.362 294.676 167.443 298.979 169.817C303.356 172.191 309.588 173.304 317.675 173.304H350.466V129.236H341.415V45.9967H287.999V57.5701C284.513 53.3413 280.655 50.3738 276.649 48.5933C272.568 46.887 267.375 45.9967 260.921 45.9967H226.275C214.182 45.9967 204.909 49.1868 198.38 55.4928C191.852 61.7988 188.661 70.9239 188.661 82.794V136.58C188.661 148.451 191.852 157.502 198.306 163.808C204.909 170.114 214.182 173.304 226.349 173.304ZM242.67 90.0645H288.074V129.236H242.67V90.0645Z" fill="#080808"/>
<path d="M419.609 90.0645H451.213V115.808H502.255V75.2268C502.255 64.6179 499.955 57.0507 495.355 52.5994C490.756 48.1482 483.04 45.9967 472.283 45.9967H443.869C436.376 45.9967 431.034 46.7386 427.696 48.1482C424.357 49.5577 421.612 52.0801 419.609 55.7153V45.9967H365.378V173.304H419.609V90.0645Z" fill="#080808"/>
<path d="M557.451 173.304H590.019C598.329 173.304 604.635 172.117 609.012 169.668C613.389 167.22 616.801 163.214 619.175 157.576V187.028H569.692V226.942H626.594C643.361 226.942 655.157 223.306 662.13 216.036C669.104 208.766 672.517 196.302 672.517 178.645V45.9967H619.101V57.4959C615.614 53.2671 611.831 50.2996 607.75 48.5933C603.744 46.887 598.477 45.9967 592.023 45.9967H557.377C545.284 45.9967 536.01 49.1868 529.482 55.4928C523.028 61.7988 519.763 70.9239 519.763 82.794V136.58C519.763 148.451 522.953 157.502 529.408 163.808C536.01 170.114 545.358 173.304 557.451 173.304ZM573.772 90.0645H619.175V129.236H573.772V90.0645Z" fill="#080808"/>
<path d="M748.782 45.9967H695.367V173.304H748.782V45.9967Z" fill="#080808"/>
<path d="M748.782 0H695.367V30.5655H748.782V0Z" fill="#080808"/>
</g>
</svg>
